<?xml version="1.0" standalone="no"?>
<!DOCTYPE svg PUBLIC "-//W3C//DTD SVG 20010904//EN"
 "http://www.w3.org/TR/2001/REC-SVG-20010904/DTD/svg10.dtd">
<svg version="1.0" xmlns="http://www.w3.org/2000/svg"
 width="4958.000000pt" height="4958.000000pt" viewBox="0 0 4958.000000 4958.000000"
 preserveAspectRatio="xMidYMid meet">
<metadata>
Created by potrace 1.14, written by Peter Selinger 2001-2017
</metadata>
<g transform="translate(0.000000,4958.000000) scale(0.100000,-0.100000)"
fill="#000000" stroke="none">
<path d="M18837 43041 c-95 -31 -142 -57 -203 -115 -102 -93 -161 -217 -169
-350 -8 -142 21 -220 169 -446 262 -400 306 -467 391 -597 49 -76 137 -210
195 -298 58 -88 109 -168 115 -178 28 -49 321 -492 327 -495 5 -2 8 -8 8 -12
0 -5 57 -96 127 -202 127 -194 244 -373 357 -547 185 -284 245 -377 253 -386
5 -5 12 -17 16 -25 3 -8 42 -69 86 -135 44 -66 110 -167 147 -225 73 -113 218
-335 356 -545 46 -71 115 -177 153 -235 37 -58 109 -168 160 -245 50 -77 122
-187 160 -245 37 -58 109 -168 160 -245 50 -77 163 -250 250 -385 88 -135 162
-247 165 -250 4 -3 9 -12 13 -20 4 -8 42 -69 86 -135 44 -66 129 -196 190
-290 125 -193 185 -259 280 -308 60 -31 80 -39 146 -53 20 -5 448 -8 2320 -19
589 -3 1423 -8 1855 -10 2552 -15 4050 -23 5585 -30 1603 -7 2283 -13 2360
-20 33 -2 98 -7 145 -9 47 -3 101 -7 120 -10 19 -3 64 -7 100 -11 36 -3 79 -8
95 -10 17 -2 48 -7 70 -9 48 -6 290 -44 325 -51 14 -3 39 -8 55 -11 65 -11
215 -46 325 -75 63 -17 122 -32 130 -34 30 -6 349 -113 381 -127 19 -8 70 -30
114 -48 175 -72 419 -197 590 -303 720 -446 1238 -1165 1437 -1997 31 -129 73
-368 83 -470 22 -219 24 -264 24 -505 0 -209 -1 -253 -13 -395 -11 -129 -37
-301 -71 -483 -28 -147 -143 -522 -191 -620 -13 -28 -24 -54 -24 -58 0 -15
-93 -202 -158 -319 -56 -100 -194 -315 -211 -330 -3 -3 -19 -23 -35 -45 -104
-143 -328 -380 -481 -511 -372 -317 -825 -566 -1340 -735 -241 -80 -502 -144
-740 -184 -55 -9 -111 -18 -125 -21 -14 -2 -63 -8 -110 -14 -105 -13 -155 -19
-200 -25 -71 -9 -212 -23 -320 -31 -47 -4 -1532 -8 -3300 -9 -1768 -2 -3224
-5 -3235 -8 -104 -28 -181 -72 -251 -144 -95 -96 -143 -202 -151 -333 -4 -62
-1 -103 12 -149 21 -81 38 -114 132 -259 42 -64 119 -182 171 -262 52 -80 137
-210 189 -290 52 -80 155 -237 228 -350 74 -113 137 -210 142 -216 4 -5 13
-18 18 -27 11 -19 96 -149 301 -462 72 -110 161 -247 199 -305 69 -107 142
-219 262 -402 36 -57 117 -179 178 -273 156 -237 272 -415 340 -520 32 -49
101 -155 153 -235 53 -80 132 -201 177 -270 45 -69 124 -190 177 -270 52 -80
125 -192 163 -250 101 -156 261 -399 351 -535 43 -66 81 -124 84 -130 5 -10
122 -188 242 -368 32 -48 58 -90 58 -93 0 -3 5 -10 11 -17 5 -7 50 -73 98
-147 49 -74 107 -154 130 -178 73 -72 186 -127 284 -138 29 -3 693 -7 1477 -9
784 -2 1457 -6 1495 -9 39 -2 117 -7 175 -11 58 -3 119 -7 135 -9 17 -2 73 -7
125 -11 52 -4 101 -8 110 -10 8 -1 47 -6 85 -9 39 -4 81 -9 95 -11 14 -2 44
-7 68 -10 92 -11 130 -16 192 -26 36 -6 79 -13 95 -15 17 -3 53 -9 80 -14 28
-5 66 -12 85 -15 19 -3 55 -10 80 -15 25 -5 56 -12 70 -14 60 -11 267 -58 337
-77 43 -12 82 -22 88 -24 24 -4 107 -28 200 -56 1279 -387 2189 -1082 2656
-2029 90 -181 185 -434 225 -594 46 -184 73 -315 90 -442 3 -27 8 -56 9 -65 2
-8 6 -53 10 -100 3 -46 8 -102 10 -124 6 -52 6 -412 0 -495 -8 -140 -22 -290
-30 -320 -2 -8 -7 -44 -10 -80 -4 -36 -8 -67 -10 -70 -2 -3 -6 -26 -10 -50
-10 -73 -82 -356 -118 -470 -44 -136 -108 -299 -158 -400 -21 -45 -39 -83 -39
-86 0 -13 -151 -272 -213 -364 -147 -221 -263 -359 -473 -565 -315 -310 -644
-540 -1081 -759 -130 -65 -198 -95 -402 -180 -221 -92 -345 -287 -328 -517 4
-42 15 -100 27 -130 17 -46 165 -288 199 -326 6 -7 11 -14 11 -17 0 -3 52 -85
117 -183 141 -216 299 -458 400 -613 77 -119 276 -424 368 -565 29 -44 81
-125 117 -180 36 -55 131 -200 211 -322 80 -122 151 -231 158 -244 6 -13 16
-28 21 -33 13 -16 118 -178 118 -183 0 -2 5 -9 11 -16 6 -7 66 -97 134 -202
68 -104 166 -255 218 -335 241 -369 311 -477 417 -640 62 -96 158 -242 212
-323 54 -82 98 -150 98 -152 0 -2 35 -57 78 -122 79 -119 151 -229 277 -423
671 -1032 737 -1131 767 -1161 57 -55 91 -81 146 -109 131 -66 267 -73 447
-21 401 117 932 294 1250 418 50 19 119 46 155 60 36 13 76 29 90 35 59 25 95
41 280 119 274 115 455 199 725 335 156 78 420 217 465 244 50 30 192 110 196
110 3 0 313 188 404 245 98 61 306 200 318 212 7 7 17 13 21 13 4 0 18 8 29
18 12 9 36 27 54 40 214 149 659 491 753 578 11 11 49 44 85 74 36 30 70 60
76 65 228 206 567 541 705 695 42 47 99 110 127 142 27 31 96 112 152 180 56
67 110 133 120 145 10 12 58 75 107 140 48 65 90 120 93 123 26 25 270 386
372 550 216 347 448 796 595 1150 19 47 42 101 50 120 8 19 19 44 24 55 4 11
37 99 73 195 141 385 263 811 356 1250 12 57 37 192 74 405 2 17 12 82 21 145
9 63 18 126 20 140 4 30 14 110 19 165 20 185 26 248 31 335 3 41 7 107 10
145 23 346 23 800 0 1285 -3 60 -14 214 -20 270 -2 19 -6 71 -10 114 -4 43 -8
87 -10 97 -2 10 -7 53 -10 96 -4 43 -9 85 -10 94 -2 9 -6 40 -10 70 -3 30 -8
65 -10 79 -2 14 -7 45 -10 70 -12 87 -78 468 -97 560 -6 30 -12 60 -14 65 -31
151 -53 244 -94 405 -28 107 -53 204 -55 214 -2 10 -9 33 -15 51 -6 18 -12 41
-15 51 -4 22 -48 164 -98 319 -99 305 -247 681 -390 990 -49 106 -207 420
-262 520 -127 232 -349 596 -367 603 -4 2 -8 8 -8 13 0 20 -315 459 -435 608
-8 9 -30 36 -51 61 -20 25 -53 65 -73 89 -246 302 -642 706 -956 978 -33 28
-71 61 -85 73 -14 12 -79 65 -145 119 -66 53 -122 98 -125 101 -34 34 -367
274 -530 381 -212 140 -287 187 -450 282 -78 46 -112 65 -210 120 -19 11 -129
68 -245 127 -184 93 -259 129 -465 222 -118 54 -274 117 -480 194 -233 88
-281 110 -340 153 -93 69 -170 194 -187 305 -28 176 22 334 141 451 56 55 87
74 223 140 87 42 165 79 173 84 8 4 78 41 155 81 221 115 495 275 714 418 102
67 390 266 431 299 8 6 69 53 135 104 105 81 341 274 355 290 3 3 43 39 90 79
151 132 559 545 690 699 30 36 62 72 70 81 43 45 300 374 390 500 119 165 290
425 290 439 0 5 3 11 8 13 7 3 72 106 72 115 0 3 8 17 19 31 10 15 31 50 46
77 15 28 48 86 72 130 68 120 253 503 316 650 47 111 94 228 164 410 119 309
304 985 347 1269 4 21 8 41 10 45 2 3 7 26 10 51 3 25 9 59 11 75 14 77 25
144 30 185 3 25 8 56 10 70 2 14 7 50 10 80 3 30 8 62 10 70 2 8 7 51 10 94 4
43 8 86 10 95 2 9 6 59 10 111 4 52 8 111 10 130 12 116 19 365 19 635 0 370
-10 583 -39 855 -2 19 -7 63 -10 98 -4 35 -8 71 -10 80 -1 9 -6 46 -10 82 -4
36 -8 67 -10 70 -1 3 -6 30 -9 61 -4 31 -9 67 -12 80 -2 13 -7 40 -10 59 -2
19 -7 46 -10 60 -2 14 -7 37 -9 53 -7 36 -12 62 -24 122 -6 28 -13 61 -16 75
-14 73 -50 226 -71 305 -77 300 -145 517 -250 799 -46 123 -50 133 -77 196 -8
19 -27 63 -41 97 -34 82 -67 154 -132 292 -30 62 -54 117 -54 121 0 5 -3 10
-7 12 -5 2 -28 43 -53 93 -152 304 -435 749 -684 1075 -76 101 -194 249 -206
260 -3 3 -30 34 -60 70 -90 107 -103 121 -160 184 -155 171 -369 387 -526 532
-53 49 -101 94 -108 100 -41 39 -228 200 -262 226 -16 12 -31 25 -34 28 -6 7
-192 156 -231 185 -15 11 -79 59 -143 108 -64 48 -120 87 -125 87 -5 0 -11 3
-13 8 -5 12 -74 61 -282 199 -111 73 -206 137 -213 143 -7 5 -14 10 -17 10 -3
0 -49 28 -103 61 -93 59 -490 289 -498 289 -2 0 -32 16 -67 36 -67 39 -457
235 -598 302 -291 137 -734 321 -1105 458 -255 94 -822 278 -1050 340 -33 9
-80 22 -105 30 -251 72 -987 252 -1100 269 -14 2 -54 10 -90 19 -36 8 -81 17
-100 20 -19 3 -68 12 -107 20 -40 9 -85 18 -100 21 -16 3 -41 8 -58 11 -16 3
-39 7 -50 9 -11 1 -112 19 -225 38 -113 20 -225 39 -250 42 -24 4 -47 8 -50
10 -3 1 -32 6 -65 9 -33 4 -67 9 -75 11 -8 2 -37 6 -65 10 -54 7 -106 14 -145
20 -14 3 -50 7 -80 11 -30 3 -63 8 -74 10 -10 2 -44 6 -75 10 -31 3 -64 8 -74
10 -10 2 -48 6 -85 10 -36 3 -73 7 -82 9 -8 2 -44 6 -80 10 -36 3 -76 8 -90
10 -14 2 -61 7 -105 11 -44 3 -89 8 -100 10 -11 2 -49 6 -85 9 -36 3 -83 7
-105 10 -22 2 -76 7 -120 10 -44 4 -96 8 -115 10 -19 2 -78 6 -130 10 -52 3
-115 8 -140 10 -51 5 -175 13 -302 20 -49 3 -125 7 -170 10 -46 2 -150 7 -233
11 -82 3 -193 8 -245 11 -52 3 -3902 7 -8555 9 -8215 3 -8462 3 -8518 -15z"/>
<path d="M11930 42046 c-48 -11 -246 -79 -305 -105 -11 -5 -126 -50 -255 -101
-129 -51 -253 -100 -275 -110 -22 -10 -85 -37 -140 -60 -90 -38 -278 -121
-440 -195 -174 -79 -631 -304 -795 -391 -99 -52 -193 -103 -320 -172 -106 -57
-295 -165 -358 -203 -35 -22 -66 -39 -68 -39 -4 0 -138 -80 -194 -115 -19 -12
-114 -71 -210 -130 -163 -102 -600 -389 -770 -508 -187 -130 -626 -453 -740
-545 -58 -46 -74 -60 -180 -143 -69 -55 -85 -68 -250 -204 -166 -136 -309
-258 -459 -394 -41 -36 -84 -74 -95 -84 -203 -176 -764 -720 -998 -968 -121
-130 -239 -256 -255 -275 -15 -18 -70 -79 -201 -223 -48 -53 -122 -139 -144
-167 -12 -16 -28 -33 -34 -39 -51 -44 -510 -615 -724 -900 -58 -77 -107 -142
-110 -145 -3 -3 -16 -21 -30 -40 -13 -19 -70 -98 -125 -175 -273 -378 -697
-1028 -847 -1295 -11 -19 -24 -39 -28 -45 -4 -5 -19 -30 -32 -55 -14 -25 -58
-101 -97 -169 -40 -68 -89 -153 -109 -190 -20 -36 -46 -84 -58 -106 -23 -41
-46 -83 -129 -240 -122 -231 -320 -631 -445 -900 -87 -188 -100 -216 -100
-220 0 -3 -14 -35 -31 -72 -42 -92 -140 -322 -174 -408 -15 -38 -31 -74 -36
-79 -5 -6 -9 -15 -9 -22 0 -6 -8 -29 -17 -50 -9 -22 -17 -41 -18 -44 0 -3 -24
-65 -53 -138 -29 -73 -80 -208 -113 -300 -34 -92 -65 -176 -69 -187 -31 -71
-218 -638 -278 -840 -17 -55 -42 -138 -56 -185 -26 -86 -153 -548 -161 -585
-2 -11 -6 -29 -9 -40 -59 -232 -121 -498 -170 -730 -14 -66 -30 -140 -36 -165
-5 -25 -12 -56 -14 -70 -3 -14 -12 -61 -20 -105 -8 -44 -17 -92 -20 -107 -3
-15 -11 -63 -20 -105 -8 -43 -17 -94 -20 -113 -3 -19 -12 -73 -20 -120 -8 -47
-17 -103 -21 -125 -3 -23 -8 -52 -10 -65 -3 -14 -7 -42 -10 -64 -3 -21 -7 -50
-9 -65 -3 -14 -8 -46 -11 -71 -3 -25 -10 -70 -15 -100 -5 -30 -12 -82 -16
-115 -3 -33 -8 -63 -10 -66 -1 -3 -6 -38 -9 -77 -3 -40 -8 -81 -10 -91 -5 -27
-15 -110 -20 -171 -3 -30 -7 -70 -9 -90 -5 -34 -10 -79 -20 -185 -3 -27 -8
-79 -12 -115 -3 -36 -8 -85 -9 -110 -2 -25 -6 -76 -9 -115 -16 -181 -28 -382
-42 -665 -16 -306 -9 -1055 11 -1395 3 -38 7 -115 10 -170 3 -55 8 -120 10
-145 2 -25 7 -88 10 -140 4 -52 8 -110 10 -129 3 -19 7 -72 10 -117 3 -46 8
-92 10 -102 1 -10 6 -58 10 -108 4 -49 9 -97 10 -106 2 -9 6 -48 10 -85 3 -37
8 -79 10 -93 3 -14 7 -54 10 -90 4 -36 8 -76 10 -90 2 -14 7 -45 10 -70 5 -46
32 -248 40 -310 12 -82 15 -106 19 -130 3 -14 14 -88 26 -165 11 -77 22 -151
25 -165 9 -55 36 -217 41 -245 2 -16 7 -41 9 -55 3 -14 8 -36 10 -50 3 -14 8
-41 11 -60 3 -19 28 -147 55 -285 27 -137 51 -259 53 -270 2 -11 23 -103 45
-205 39 -174 52 -229 103 -440 11 -47 22 -93 24 -102 2 -10 6 -26 8 -35 9 -40
88 -342 101 -388 8 -27 35 -122 59 -210 62 -224 184 -636 203 -685 3 -8 7 -19
8 -25 7 -27 151 -460 175 -525 15 -41 58 -160 95 -265 93 -262 228 -612 347
-899 111 -269 126 -304 138 -327 5 -9 24 -54 43 -100 19 -46 52 -120 72 -164
21 -44 57 -123 80 -175 121 -268 299 -630 385 -785 99 -176 108 -193 153 -270
157 -272 494 -817 509 -823 4 -2 8 -8 8 -13 0 -9 247 -383 273 -414 5 -5 50
-69 100 -141 95 -135 263 -368 284 -394 6 -8 61 -80 122 -160 107 -140 296
-381 316 -404 6 -6 37 -45 70 -86 65 -81 94 -116 110 -134 6 -6 46 -54 90
-106 113 -135 310 -359 426 -484 31 -34 68 -74 83 -91 240 -266 796 -820 1086
-1081 30 -27 64 -58 75 -69 25 -24 124 -110 255 -225 52 -45 109 -94 125 -109
17 -14 55 -46 85 -71 30 -25 61 -50 68 -57 27 -26 272 -224 417 -337 83 -65
159 -125 170 -134 22 -18 367 -273 460 -340 235 -169 646 -446 885 -595 104
-65 546 -332 585 -353 11 -6 43 -23 70 -39 967 -550 1980 -1006 3029 -1361
138 -47 258 -87 266 -89 8 -2 67 -20 130 -40 63 -21 129 -41 145 -45 17 -5
109 -32 205 -60 96 -28 209 -60 250 -71 103 -28 421 -110 441 -114 8 -2 44
-10 80 -19 70 -17 282 -65 314 -72 11 -2 31 -6 45 -9 14 -2 41 -7 60 -10 19
-3 42 -8 50 -10 8 -2 31 -7 50 -10 19 -3 69 -12 110 -20 41 -8 89 -17 105 -19
17 -3 98 -16 180 -30 83 -14 168 -28 190 -31 22 -3 51 -8 65 -11 14 -2 45 -7
70 -9 25 -3 52 -7 60 -9 17 -3 102 -16 145 -21 52 -6 129 -17 155 -21 14 -2
50 -6 80 -9 30 -3 66 -8 80 -10 14 -3 48 -7 75 -10 28 -3 84 -10 125 -15 41
-5 104 -12 140 -15 36 -3 76 -8 90 -10 24 -4 79 -9 215 -20 33 -3 78 -7 100
-10 22 -3 76 -7 120 -10 44 -3 100 -7 125 -10 59 -6 199 -16 269 -20 31 -2
110 -6 176 -9 66 -3 145 -8 175 -11 30 -3 114 -7 185 -10 128 -5 198 -8 664
-22 130 -4 3949 -7 8486 -7 7852 -1 8253 0 8306 17 81 25 166 80 226 144 48
52 108 155 119 205 40 185 19 300 -83 450 -18 26 -33 50 -33 52 0 2 -40 64
-88 137 -48 74 -124 189 -167 257 -44 67 -131 199 -192 293 -62 94 -113 173
-113 175 0 7 -65 99 -72 102 -5 2 -8 7 -8 12 0 5 -63 105 -139 222 -77 117
-179 274 -228 348 -95 146 -254 390 -368 565 -40 61 -103 157 -140 215 -38 58
-111 170 -163 250 -52 80 -129 198 -171 263 -42 64 -125 193 -186 285 -60 92
-144 219 -184 282 -291 448 -445 684 -568 871 -62 94 -113 172 -113 174 0 2
-35 56 -78 122 -43 65 -109 165 -147 223 -38 58 -101 155 -140 215 -40 61
-101 155 -137 210 -365 561 -463 706 -505 749 -65 66 -142 109 -243 138 -23 6
-2214 11 -6205 13 -5527 3 -6510 6 -6760 19 -100 5 -329 23 -395 31 -19 2 -66
7 -103 10 -37 4 -76 8 -85 10 -9 1 -48 6 -85 10 -37 3 -78 8 -90 11 -12 2 -42
7 -67 10 -25 2 -88 11 -140 20 -137 21 -153 24 -176 28 -12 2 -37 7 -55 10
-19 3 -45 8 -59 11 -14 2 -36 7 -50 9 -14 3 -81 17 -149 31 -67 15 -133 29
-145 31 -46 9 -67 14 -246 59 -183 46 -423 113 -508 142 -25 8 -52 16 -61 18
-22 5 -342 113 -366 124 -11 5 -72 29 -135 52 -101 37 -369 145 -455 184 -146
66 -314 145 -435 205 -142 70 -184 92 -345 179 -184 100 -485 281 -661 398
-48 32 -94 63 -102 68 -88 56 -421 295 -526 377 -25 20 -168 132 -216 171 -44
35 -186 152 -190 158 -3 3 -41 36 -85 74 -44 37 -91 79 -105 92 -14 13 -65 60
-115 105 -117 107 -485 477 -596 598 -230 253 -437 500 -637 764 -67 88 -126
166 -130 171 -8 11 -82 116 -134 190 -137 197 -390 591 -444 690 -6 11 -30 54
-54 95 -24 41 -79 140 -122 220 -43 80 -83 152 -88 160 -17 30 -199 397 -239
482 -119 257 -248 565 -348 833 -60 161 -230 672 -249 750 -1 6 -19 68 -39
139 -20 71 -38 137 -41 145 -2 9 -11 43 -20 76 -9 33 -18 68 -20 78 -2 10 -6
27 -9 37 -3 10 -7 27 -9 37 -2 10 -9 36 -14 58 -6 22 -13 51 -15 65 -3 14 -10
43 -15 65 -6 22 -13 51 -16 65 -2 14 -14 70 -26 125 -11 55 -23 111 -25 125
-3 14 -8 39 -12 55 -4 17 -7 39 -8 50 -1 11 -5 34 -9 50 -11 53 -15 70 -36
195 -13 74 -18 107 -25 160 -3 25 -10 70 -15 100 -5 30 -12 82 -15 115 -4 33
-8 67 -10 75 -2 8 -7 42 -10 75 -4 33 -8 71 -10 85 -2 14 -7 57 -10 95 -3 39
-8 86 -11 105 -7 55 -20 216 -29 360 -12 190 -17 294 -20 360 -5 106 -4 771 0
855 2 39 6 124 9 190 6 130 13 222 21 300 3 28 8 79 10 115 3 36 7 83 10 105
2 22 7 63 10 90 5 46 10 87 21 170 2 17 6 52 10 79 3 27 7 57 9 66 2 9 6 41
10 70 6 51 8 63 20 120 2 14 7 45 10 70 8 62 82 437 107 540 11 47 21 90 22
95 2 9 28 120 31 135 0 3 4 14 8 25 3 11 8 32 11 46 16 97 237 812 285 924 5
11 37 94 71 185 63 165 176 435 245 585 147 317 345 695 508 965 38 63 77 129
87 145 23 40 103 166 151 238 22 32 39 62 39 66 0 5 3 11 8 13 4 2 36 46 71
98 66 98 281 401 291 410 3 3 25 32 49 65 25 33 47 62 51 65 3 3 16 19 28 37
13 18 32 42 42 55 11 13 61 75 112 138 50 63 94 117 97 120 4 3 40 46 81 95
41 50 77 92 80 95 4 3 44 48 90 100 201 230 623 662 854 875 59 55 120 111
135 125 25 24 157 142 230 205 19 17 42 37 51 45 9 8 41 35 71 60 30 25 63 52
74 62 144 119 224 185 330 269 50 39 99 78 110 88 40 33 373 281 487 362 199
143 235 167 457 315 119 79 221 147 226 151 17 14 477 299 535 332 30 18 64
37 74 44 99 61 126 77 131 77 3 0 23 11 45 25 75 48 476 268 635 350 166 85
468 224 688 318 147 63 190 90 256 163 123 134 162 336 98 505 -23 62 -56 114
-273 444 -43 66 -81 125 -84 130 -3 6 -32 51 -64 100 -126 191 -171 260 -176
270 -3 6 -39 62 -81 125 -42 63 -112 171 -157 240 -45 69 -85 130 -89 136 -4
5 -12 18 -18 27 -16 26 -163 252 -340 522 -90 138 -196 300 -235 360 -39 61
-131 202 -205 315 -73 113 -180 276 -237 363 -57 86 -108 165 -113 175 -6 9
-49 76 -96 147 -47 72 -125 191 -174 265 -99 152 -212 326 -330 507 -44 67
-114 176 -156 240 -42 65 -134 206 -204 313 -220 335 -251 383 -300 460 -27
41 -90 138 -140 215 -135 206 -211 323 -312 480 -50 77 -110 163 -134 191 -53
62 -142 123 -224 154 -74 27 -215 35 -295 16z"/>
</g>
</svg>
